<mxfile host="app.diagrams.net" modified="2024-04-04T14:34:05.077Z" agent="Mozilla/5.0 (Windows NT 10.0; Win64; x64) AppleWebKit/537.36 (KHTML, like Gecko) Chrome/122.0.0.0 Safari/537.36 Edg/122.0.0.0" etag="ubzIML_seLuoSlnJ5BRP" version="24.2.2" type="github">
  <diagram name="Page-1" id="dd472eb7-4b8b-5cd9-a60b-b15522922e76">
    <mxGraphModel dx="2852" dy="1662" grid="1" gridSize="10" guides="1" tooltips="1" connect="1" arrows="1" fold="1" page="1" pageScale="1" pageWidth="1100" pageHeight="850" background="none" math="0" shadow="0">
      <root>
        <mxCell id="0" />
        <mxCell id="1" parent="0" />
        <mxCell id="OgZXH6Yg16UVhULIMfrg-19" value="" style="ellipse;whiteSpace=wrap;html=1;aspect=fixed;" vertex="1" parent="1">
          <mxGeometry x="385.5" y="440" width="240" height="240" as="geometry" />
        </mxCell>
        <mxCell id="OgZXH6Yg16UVhULIMfrg-2" value="" style="shape=mxgraph.cisco.storage.cloud;html=1;pointerEvents=1;dashed=0;fillColor=#036897;strokeColor=#ffffff;strokeWidth=2;verticalLabelPosition=bottom;verticalAlign=top;align=center;outlineConnect=0;movable=1;resizable=1;rotatable=1;deletable=1;editable=1;locked=0;connectable=1;rounded=0;" vertex="1" parent="1">
          <mxGeometry x="10" y="20" width="270" height="160" as="geometry" />
        </mxCell>
        <mxCell id="OgZXH6Yg16UVhULIMfrg-3" value="&lt;font style=&quot;font-size: 32px;&quot;&gt;&lt;b&gt;Enablers&lt;/b&gt;&lt;/font&gt;" style="text;html=1;align=center;verticalAlign=middle;resizable=1;points=[];autosize=1;strokeColor=none;fillColor=none;movable=1;rotatable=1;deletable=1;editable=1;locked=0;connectable=1;" vertex="1" parent="1">
          <mxGeometry x="65" y="75" width="160" height="50" as="geometry" />
        </mxCell>
        <mxCell id="OgZXH6Yg16UVhULIMfrg-18" style="edgeStyle=orthogonalEdgeStyle;orthogonalLoop=1;jettySize=auto;html=1;entryX=0.5;entryY=0;entryDx=0;entryDy=0;strokeWidth=6;" edge="1" parent="1" source="OgZXH6Yg16UVhULIMfrg-4" target="OgZXH6Yg16UVhULIMfrg-15">
          <mxGeometry relative="1" as="geometry" />
        </mxCell>
        <mxCell id="OgZXH6Yg16UVhULIMfrg-4" value="" style="shape=mxgraph.cisco.storage.cloud;html=1;pointerEvents=1;dashed=0;fillColor=#036897;strokeColor=#ffffff;strokeWidth=2;verticalLabelPosition=bottom;verticalAlign=top;align=center;outlineConnect=0;movable=1;resizable=1;rotatable=1;deletable=1;editable=1;locked=0;connectable=1;rounded=0;" vertex="1" parent="1">
          <mxGeometry x="370" y="20" width="270" height="160" as="geometry" />
        </mxCell>
        <mxCell id="OgZXH6Yg16UVhULIMfrg-13" style="orthogonalLoop=1;jettySize=auto;html=1;exitX=1;exitY=0;exitDx=0;exitDy=0;entryX=0.126;entryY=0.825;entryDx=0;entryDy=0;entryPerimeter=0;strokeWidth=3;" edge="1" parent="1" source="OgZXH6Yg16UVhULIMfrg-6" target="OgZXH6Yg16UVhULIMfrg-4">
          <mxGeometry relative="1" as="geometry" />
        </mxCell>
        <mxCell id="OgZXH6Yg16UVhULIMfrg-6" value="" style="rounded=1;whiteSpace=wrap;html=1;strokeWidth=2;fillWeight=4;hachureGap=8;hachureAngle=45;fillColor=#1ba1e2;sketch=1;" vertex="1" parent="1">
          <mxGeometry x="58.75" y="240" width="172.5" height="90" as="geometry" />
        </mxCell>
        <mxCell id="OgZXH6Yg16UVhULIMfrg-7" value="&lt;font style=&quot;font-size: 32px;&quot;&gt;&lt;b&gt;Black Box&lt;/b&gt;&lt;/font&gt;" style="text;html=1;align=center;verticalAlign=middle;resizable=0;points=[];autosize=1;strokeColor=none;fillColor=none;" vertex="1" parent="1">
          <mxGeometry x="53.75" y="258" width="180" height="50" as="geometry" />
        </mxCell>
        <mxCell id="OgZXH6Yg16UVhULIMfrg-10" style="edgeStyle=orthogonalEdgeStyle;orthogonalLoop=1;jettySize=auto;html=1;entryX=0.5;entryY=0.99;entryDx=0;entryDy=0;entryPerimeter=0;strokeWidth=5;" edge="1" parent="1" source="OgZXH6Yg16UVhULIMfrg-6" target="OgZXH6Yg16UVhULIMfrg-2">
          <mxGeometry relative="1" as="geometry" />
        </mxCell>
        <mxCell id="OgZXH6Yg16UVhULIMfrg-11" style="edgeStyle=orthogonalEdgeStyle;orthogonalLoop=1;jettySize=auto;html=1;strokeWidth=5;entryX=0.04;entryY=0.5;entryDx=0;entryDy=0;entryPerimeter=0;" edge="1" parent="1" source="OgZXH6Yg16UVhULIMfrg-2" target="OgZXH6Yg16UVhULIMfrg-4">
          <mxGeometry relative="1" as="geometry" />
        </mxCell>
        <mxCell id="OgZXH6Yg16UVhULIMfrg-12" value="&lt;font style=&quot;font-size: 32px;&quot;&gt;&lt;b&gt;Enablers/&lt;br&gt;metriques&lt;/b&gt;&lt;/font&gt;" style="text;html=1;align=center;verticalAlign=middle;resizable=1;points=[];autosize=1;strokeColor=none;fillColor=none;movable=1;rotatable=1;deletable=1;editable=1;locked=0;connectable=1;" vertex="1" parent="1">
          <mxGeometry x="415" y="50" width="180" height="90" as="geometry" />
        </mxCell>
        <mxCell id="OgZXH6Yg16UVhULIMfrg-15" value="" style="shape=image;verticalLabelPosition=bottom;labelBackgroundColor=default;verticalAlign=top;aspect=fixed;imageAspect=0;image=data:image/svg+xml,PHN2ZyB4bWxucz0iaHR0cDovL3d3dy53My5vcmcvMjAwMC9zdmciIHZpZXdCb3g9IjAgMCAzMiAzMiI+PGcgZmlsbD0iI2U2NTIyYyI+PHBhdGggZD0ibTE2IDMwYy0yLjUwNiAwLTQuNTM5LTEuNjc0LTQuNTM5LTMuNzM5aDkuMDc3Yy4wMDEgMi4wNjQtMi4wMzEgMy43MzktNC41MzggMy43Mzl6Ii8+PHBhdGggZD0ibTIzLjQ5NiAyNS4wMjNoLTE0Ljk5M3YtMi43MTloMTQuOTk0djIuNzE5eiIvPjxwYXRoIGQ9Im0yMy40NDMgMjAuOWgtMTQuODk3Yy0uMDUtLjA1Ny0uMS0uMTEzLS4xNDgtLjE3MWExMC44NjcgMTAuODY3IDAgMCAxIC0yLjI0OC0zLjgyNGMtLjAwNi0uMDMzIDEuODYxLjM4MSAzLjE4NS42NzkgMCAwIC42ODEuMTU4IDEuNjc3LjMzOWE2LjIyNSA2LjIyNSAwIDAgMSAtMS41MjQtNGMwLTMuMiAyLjQ1Mi01Ljk5MiAxLjU2OC04LjI1Ljg2MS4wNyAxLjc4MiAxLjgxNyAxLjg0NCA0LjU0OWE5Ljc2OSA5Ljc2OSAwIDAgMCAxLjMtNC45OTJjMC0xLjQ2Ny45NjYtMy4xNyAxLjkzMy0zLjIyOS0uODYyIDEuNDIuMjIzIDIuNjM4IDEuMTg4IDUuNjU4LjM2MiAxLjEzNC4zMTYgMy4wNDQuNTk1IDQuMjU0LjA5My0yLjUxNS41MjUtNi4xODQgMi4xMi03LjQ1LS43IDEuNi4xIDMuNTkxLjY1NyA0LjU1MWE4LjYyMyA4LjYyMyAwIDAgMSAxLjQzMiA0Ljk0IDYuMTcgNi4xNyAwIDAgMSAtMS40NzYgMy45ODNjMS4wNTMtLjIgMS43ODEtLjM3NiAxLjc4MS0uMzc2bDMuNDIxLS42NjdhOS43IDkuNyAwIDAgMSAtMi40MDggNC4wMDZ6Ii8+PC9nPjwvc3ZnPg==;" vertex="1" parent="1">
          <mxGeometry x="425" y="440" width="160" height="160" as="geometry" />
        </mxCell>
        <mxCell id="OgZXH6Yg16UVhULIMfrg-17" value="&lt;b&gt;&lt;font style=&quot;font-size: 23px;&quot;&gt;Prometheus&lt;br&gt;TSDB&lt;/font&gt;&lt;/b&gt;" style="text;html=1;align=center;verticalAlign=middle;resizable=0;points=[];autosize=1;strokeColor=none;fillColor=none;" vertex="1" parent="1">
          <mxGeometry x="425.5" y="600" width="160" height="70" as="geometry" />
        </mxCell>
        <mxCell id="OgZXH6Yg16UVhULIMfrg-20" value="" style="shape=image;verticalLabelPosition=bottom;labelBackgroundColor=default;verticalAlign=top;aspect=fixed;imageAspect=0;image=data:image/svg+xml,PHN2ZyB4bWxucz0iaHR0cDovL3d3dy53My5vcmcvMjAwMC9zdmciIGhlaWdodD0iMjUwMCIgd2lkdGg9IjIyNDkiIHZpZXdCb3g9IjguNSAxIDMzNC4xMDAwMDAwMDAwMDAxIDM2MyI+PGxpbmVhckdyYWRpZW50IHkyPSI5OSUiIHkxPSIzMCUiIHgyPSIxNzUuNSIgeDE9IjE3NS41IiBncmFkaWVudFVuaXRzPSJ1c2VyU3BhY2VPblVzZSIgaWQ9ImEiPjxzdG9wIHN0b3AtY29sb3I9IiNmMDVhMjgiIG9mZnNldD0iMCIvPjxzdG9wIHN0b3AtY29sb3I9IiNmYmNhMGEiIG9mZnNldD0iMSIvPjwvbGluZWFyR3JhZGllbnQ+PHBhdGggZmlsbD0idXJsKCNhKSIgZD0iTTM0MiAxNjEuMmMtLjYtNi4xLTEuNi0xMy4xLTMuNi0yMC45LTItNy43LTUtMTYuMi05LjQtMjVzLTEwLjEtMTcuOS0xNy41LTI2LjhjLTIuOS0zLjUtNi4xLTYuOS05LjUtMTAuMiA1LjEtMjAuMy02LjItMzcuOS02LjItMzcuOS0xOS41LTEuMi0zMS45IDYuMS0zNi41IDkuNC0uOC0uMy0xLjUtLjctMi4zLTEtMy4zLTEuMy02LjctMi42LTEwLjMtMy43LTMuNS0xLjEtNy4xLTIuMS0xMC44LTNzLTcuNC0xLjYtMTEuMi0yLjJjLS43LS4xLTEuMy0uMi0yLS4zQzIxNC4yIDEyLjQgMTg5LjggMSAxODkuOCAxYy0yNy4zIDE3LjMtMzIuNCA0MS41LTMyLjQgNDEuNXMtLjEuNS0uMyAxLjRjLTEuNS40LTMgLjktNC41IDEuMy0yLjEuNi00LjIgMS40LTYuMiAyLjItMi4xLjgtNC4xIDEuNi02LjIgMi41LTQuMSAxLjgtOC4yIDMuOC0xMi4yIDYtMy45IDIuMi03LjcgNC42LTExLjQgNy4xbC0xLS40Yy0zNy44LTE0LjQtNzEuMyAyLjktNzEuMyAyLjktMy4xIDQwLjIgMTUuMSA2NS41IDE4LjcgNzAuMS0uOSAyLjUtMS43IDUtMi41IDcuNS0yLjggOS4xLTQuOSAxOC40LTYuMiAyOC4xLS4yIDEuNC0uNCAyLjgtLjUgNC4yQzE4LjggMTkyLjcgOC41IDIyOCA4LjUgMjI4YzI5LjEgMzMuNSA2My4xIDM1LjYgNjMuMSAzNS42bC4xLS4xYzQuMyA3LjcgOS4zIDE1IDE0LjkgMjEuOSAyLjQgMi45IDQuOCA1LjYgNy40IDguMy0xMC42IDMwLjQgMS41IDU1LjYgMS41IDU1LjYgMzIuNCAxLjIgNTMuNy0xNC4yIDU4LjItMTcuNyAzLjIgMS4xIDYuNSAyLjEgOS44IDIuOSAxMCAyLjYgMjAuMiA0LjEgMzAuNCA0LjUgMi41LjEgNS4xLjIgNy42LjFoMy42bDEuNi0uMXYuMWMxNS4zIDIxLjggNDIuMSAyNC45IDQyLjEgMjQuOSAxOS4xLTIwLjEgMjAuMi00MC4xIDIwLjItNDQuNHYtLjMtLjYtLjljNC0yLjggNy44LTUuOCAxMS40LTkuMSA3LjYtNi45IDE0LjMtMTQuOCAxOS45LTIzLjNsMS41LTIuNGMyMS42IDEuMiAzNi45LTEzLjQgMzYuOS0xMy40LTMuNi0yMi41LTE2LjQtMzMuNS0xOS4xLTM1LjZzLS4xLS4xLS4zLS4yLS4yLS4yLS4yLS4yYy0uMS0uMS0uMy0uMi0uNS0uMy4xLTEuNC4yLTIuNy4zLTQuMS4yLTIuNC4yLTQuOS4yLTcuM3YtMy4yLS42bC0uMS0xLjUtLjEtMmMwLS43LS4xLTEuMy0uMi0xLjlzLS4xLTEuMy0uMi0xLjlsLS4yLTEuOS0uMy0xLjljLS40LTIuNS0uOC00LjktMS40LTcuNC0yLjMtOS43LTYuMS0xOC45LTExLTI3LjItNS04LjMtMTEuMi0xNS42LTE4LjMtMjEuOC03LTYuMi0xNC45LTExLjItMjMuMS0xNC45LTguMy0zLjctMTYuOS02LjEtMjUuNS03LjItNC4zLS42LTguNi0uOC0xMi45LS43aC0zLjJsLTEuNi4xYy0uNiAwLTEuMi4xLTEuNy4xLTIuMi4yLTQuNC41LTYuNS45LTguNiAxLjYtMTYuNyA0LjctMjMuOCA5cy0xMy4zIDkuNi0xOC4zIDE1LjYtOC45IDEyLjctMTEuNiAxOS42LTQuMiAxNC4xLTQuNiAyMWMtLjEgMS43LS4xIDMuNS0uMSA1LjJ2MS4zbC4xIDEuNGMuMS44LjEgMS43LjIgMi41LjMgMy41IDEgNi45IDEuOSAxMC4xIDEuOSA2LjUgNC45IDEyLjQgOC42IDE3LjRzOC4yIDkuMSAxMi45IDEyLjRjNC43IDMuMiA5LjggNS41IDE0LjggN3MxMCAyLjEgMTQuNyAyLjFoMi42Yy4zIDAgLjYgMCAuOS0uMS41IDAgMS0uMSAxLjUtLjEuMSAwIC4zIDAgLjQtLjFsLjUtLjFjLjMgMCAuNi0uMS45LS4xLjYtLjEgMS4xLS4yIDEuNy0uM3MxLjEtLjIgMS42LS40YzEuMS0uMiAyLjEtLjYgMy4xLS45IDItLjcgNC0xLjUgNS43LTIuNCAxLjgtLjkgMy40LTIgNS0zIC40LS4zLjktLjYgMS4zLTEgMS42LTEuMyAxLjktMy43LjYtNS4zLTEuMS0xLjQtMy4xLTEuOC00LjctLjlsLTEuMi42Yy0xLjQuNy0yLjggMS4zLTQuMyAxLjhzLTMuMS45LTQuNyAxLjJjLS44LjEtMS42LjItMi41LjMtLjQgMC0uOC4xLTEuMy4xaC0yLjRjLS41IDAtMSAwLTEuNS0uMUgyMTAuMmMtLjIgMC0uNSAwLS43LS4xLS41LS4xLS45LS4xLTEuNC0uMi0zLjctLjUtNy40LTEuNi0xMC45LTMuMi0zLjYtMS42LTctMy44LTEwLjEtNi42cy01LjgtNi4xLTcuOS05LjktMy42LTgtNC4zLTEyLjRjLS4zLTIuMi0uNS00LjUtLjQtNi43IDAtLjYuMS0xLjIuMS0xLjh2LS44YzAtLjMuMS0uNi4xLS45LjEtMS4yLjMtMi40LjUtMy42IDEuNy05LjYgNi41LTE5IDEzLjktMjYuMSAxLjktMS44IDMuOS0zLjQgNi00LjlzNC40LTIuOCA2LjgtMy45IDQuOC0yIDcuNC0yLjdjMi41LS43IDUuMS0xLjEgNy44LTEuNCAxLjMtLjEgMi42LS4yIDQtLjJoMy4xbDEuMS4xYzIuOS4yIDUuNy42IDguNSAxLjMgNS42IDEuMiAxMS4xIDMuMyAxNi4yIDYuMSAxMC4yIDUuNyAxOC45IDE0LjUgMjQuMiAyNS4xIDIuNyA1LjMgNC42IDExIDUuNSAxNi45LjIgMS41LjQgMyAuNSA0LjVsLjEgMS4xLjEgMS4xVjIxNy44YzAgLjctLjEgMS45LS4xIDIuNi0uMSAxLjYtLjMgMy4zLS41IDQuOXMtLjUgMy4yLS44IDQuOC0uNyAzLjItMS4xIDQuN2MtLjggMy4xLTEuOCA2LjItMyA5LjMtMi40IDYtNS42IDExLjgtOS40IDE3LjEtNy43IDEwLjYtMTguMiAxOS4yLTMwLjIgMjQuNy02IDIuNy0xMi4zIDQuNy0xOC44IDUuNy0zLjIuNi02LjUuOS05LjggMWgtNWMtMS44IDAtMy41LS4xLTUuMy0uMy03LS41LTEzLjktMS44LTIwLjctMy43LTYuNy0xLjktMTMuMi00LjYtMTkuNC03LjgtMTIuMy02LjYtMjMuNC0xNS42LTMyLTI2LjUtNC4zLTUuNC04LjEtMTEuMy0xMS4yLTE3LjRzLTUuNi0xMi42LTcuNC0xOS4xYy0xLjgtNi42LTIuOS0xMy4zLTMuNC0yMC4xbC0uMS0xLjN2LTUuNy0uNy0yLjVjLjEtMy4zLjQtNi44LjgtMTAuMnMxLTYuOSAxLjctMTAuMyAxLjUtNi44IDIuNS0xMC4yYzEuOS02LjcgNC4zLTEzLjIgNy4xLTE5LjMgNS43LTEyLjIgMTMuMS0yMy4xIDIyLTMxLjggMi4yLTIuMiA0LjUtNC4yIDYuOS02LjIgMi40LTEuOSA0LjktMy43IDcuNS01LjQgMi41LTEuNyA1LjItMy4yIDcuOS00LjYgMS4zLS43IDIuNy0xLjQgNC4xLTJsMi4xLS45IDIuMS0uOWMyLjgtMS4yIDUuNy0yLjIgOC43LTMuMS43LS4yIDEuNS0uNCAyLjItLjcuNy0uMiAxLjUtLjQgMi4yLS42IDEuNS0uNCAzLS44IDQuNS0xLjEuNy0uMiAxLjUtLjMgMi4zLS41czEuNS0uMyAyLjMtLjVjLjgtLjEgMS41LS4zIDIuMy0uNGwxLjEtLjIgMS4yLS4yYy44LS4xIDEuNS0uMiAyLjMtLjMuOS0uMSAxLjctLjIgMi42LS4zLjctLjEgMS45LS4yIDIuNi0uMy41LS4xIDEuMS0uMSAxLjYtLjJsMS4xLS4xLjUtLjFoLjZjLjktLjEgMS43LS4xIDIuNi0uMmwxLjMtLjFoMWMuNyAwIDEuNS0uMSAyLjItLjEgMi45LS4xIDUuOS0uMSA4LjggMCA1LjguMiAxMS41LjkgMTcgMS45IDExLjEgMi4xIDIxLjUgNS42IDMxIDEwLjMgOS41IDQuNiAxNy45IDEwLjMgMjUuMyAxNi41LjUuNC45LjggMS40IDEuMi40LjQuOS44IDEuMyAxLjIuOS44IDEuNyAxLjYgMi42IDIuNHMxLjcgMS42IDIuNSAyLjQgMS42IDEuNiAyLjQgMi41YzMuMSAzLjMgNiA2LjYgOC42IDEwIDUuMiA2LjcgOS40IDEzLjUgMTIuNyAxOS45bC42IDEuMi42IDEuMmMuNC44LjggMS42IDEuMSAyLjQuNC44LjcgMS41IDEuMSAyLjMuMy44LjcgMS41IDEgMi4zIDEuMiAzIDIuNCA1LjkgMy4zIDguNiAxLjUgNC40IDIuNiA4LjMgMy41IDExLjcuMyAxLjQgMS42IDIuMyAzIDIuMSAxLjUtLjEgMi42LTEuMyAyLjYtMi44LjEtMy42IDAtNy45LS41LTEyLjh6Ii8+PC9zdmc+;" vertex="1" parent="1">
          <mxGeometry x="950" y="151.66999999999996" width="240" height="266.67" as="geometry" />
        </mxCell>
        <mxCell id="OgZXH6Yg16UVhULIMfrg-21" style="orthogonalLoop=1;jettySize=auto;html=1;entryX=0.996;entryY=0.447;entryDx=0;entryDy=0;entryPerimeter=0;strokeWidth=6;" edge="1" parent="1" source="OgZXH6Yg16UVhULIMfrg-20" target="OgZXH6Yg16UVhULIMfrg-19">
          <mxGeometry relative="1" as="geometry" />
        </mxCell>
      </root>
    </mxGraphModel>
  </diagram>
</mxfile>
